/* XPM */
static char *killall_highlights[] = {
/* columns rows colors chars-per-pixel */
"24 24 134 2 ",
"   c black",
".  c #6F6F6F",
"X  c gray46",
"o  c #747679",
"O  c #7C7E7E",
"+  c gray50",
"@  c #BE0000",
"#  c #C20000",
"$  c #C60000",
"%  c #C70000",
"&  c #C60200",
"*  c #C60201",
"=  c #CA0200",
"-  c #CC0000",
";  c #CF0300",
":  c #C10909",
">  c #D20000",
",  c #D20300",
"<  c #D70400",
"1  c #D80701",
"2  c #DC0902",
"3  c #DD0D07",
"4  c #C41111",
"5  c #C41717",
"6  c #C51919",
"7  c #C61818",
"8  c #E2140D",
"9  c #E21812",
"0  c #EA1B15",
"q  c #C72020",
"w  c #C72121",
"e  c #C82828",
"r  c #C92828",
"t  c #C92A2A",
"y  c #CA2F2F",
"u  c #CB2F2F",
"i  c #CF312F",
"p  c #CD3636",
"a  c #D23938",
"s  c #D53938",
"d  c #D73F3A",
"f  c #D23F3E",
"g  c #D7403E",
"h  c #DA413F",
"j  c #DC4643",
"k  c #D84746",
"l  c #DF4A47",
"z  c #DD504E",
"x  c #CD5757",
"c  c #CD5E5E",
"v  c #E04E4B",
"b  c #E4524E",
"n  c #E95450",
"m  c #E25855",
"M  c #E6615C",
"N  c #D16161",
"B  c #D56463",
"V  c #D96563",
"C  c #DD6E6C",
"Z  c #ED6762",
"A  c #E17470",
"S  c #E67D7A",
"D  c #EF7C78",
"F  c #FFB007",
"G  c #FFB107",
"H  c #FFB207",
"J  c #FFBA00",
"K  c #FFB208",
"L  c #FFC800",
"P  c #FFC900",
"I  c #FFCA00",
"U  c #FFCA03",
"Y  c #FFD500",
"T  c #FFD600",
"R  c gold",
"E  c #FFD800",
"W  c #FFDA00",
"Q  c #FFDC0C",
"!  c #FFDF36",
"~  c #FFE126",
"^  c #FCE33A",
"/  c #FFE63A",
"(  c #FFE73A",
")  c #BCAA46",
"_  c #FFE542",
"`  c #7E8181",
"'  c #818686",
"]  c gray75",
"[  c #DC8380",
"{  c #D18C8C",
"}  c #D49494",
"|  c #DF9F9E",
" . c #EA8380",
".. c #D8A4A4",
"X. c #DCA8A8",
"o. c #DFA8A8",
"O. c #D0B3B3",
"+. c #D2B5B5",
"@. c #DFB3B3",
"#. c #D9BCBD",
"$. c #D8BEBE",
"%. c #DEBDBC",
"&. c #E2A5A5",
"*. c #FFF68A",
"=. c #FEF58C",
"-. c #FFF68C",
";. c #FFF78F",
":. c #FFFA95",
">. c #CFCECE",
",. c #D9C0C0",
"<. c #DBC3C3",
"1. c #D2D4D4",
"2. c #D7D7D7",
"3. c #DCD0D0",
"4. c #DFDADA",
"5. c #DFDCDC",
"6. c #EEC4C3",
"7. c #DBE3E3",
"8. c #E2E2E2",
"9. c #E5E4E4",
"0. c gray90",
"q. c #E2E9E9",
"w. c #E1EAEB",
"e. c #E7EAEA",
"r. c #E8E9E9",
"t. c #E9E9E9",
"y. c gray92",
"u. c #ECECEC",
"i. c #ECEEEE",
"p. c #F2FBFB",
"a. c #F6FAFA",
"s. c #F8F8F8",
"d. c white",
"f. c None",
/* pixels */
"f.f.f.f.f.f.f.f.f.f.f.f.f.f.f.f.f.f.f.f.f.f.f.f.",
"f.f.f.f.f.f.f.f.f.f.f.f.f.f.f.f.f.f.f.f.f.f.f.f.",
"f.f.f.f.f.f.f.f.f.f.f.f.f.f.f.f.f.o o f.f.f.f.f.",
"f.f.f.f.f.f.f.f.f.f.f.f.f.f.f.f.    f.o f.f.f.f.",
"f.f.f.f.f.f.f.f.f.f.f.f.f.f.f.  Z [   + o f.f.f.",
"f.f.f.f.f.f.f.f.f.f.f.f.f.f.  M b n #.  ' o f.f.",
"f.f.f.f.f.f.f.f.f.f.f.f.f.  m l z 6.d.4.  ' o f.",
"f.f.f.f.f.f.f.f.f.f.f.f.  z h j | d.a.D f   o f.",
"f.f.f.f.f.f.f.f.f.f.f.  j a d &.d.#. .8 0   f.f.",
"f.f.f.f.f.f.f.f.f.f.  f p a o.d.<.S 2 9   f.f.f.",
"f.f.f.f.f.f.f.f.f.  p e y o.d.#.A 1 2   f.f.f.f.",
"f.f.f.f.f.f.f.f.  y q y @.d.,.C , ,   f.f.f.f.f.",
"f.f.f.f.f.f.f.  y 5 q } d.3.V - ,   f.f.f.f.f.f.",
"f.f.f.f.f.f.  5 4 5 { d.+.B % -   f.f.f.f.f.f.f.",
"f.f.f.f.f.o ]   : ..d.+.N % -   f.f.f.f.f.f.f.f.",
"f.f.f.f.o 2.a.4.  q.7.c @ %   f.f.f.f.f.f.f.f.f.",
"f.f.f.o . d.t.t.7.  x @ %   f.f.f.f.f.f.f.f.f.f.",
"f.f.f.f.o + t.t.0.2.  %   f.f.f.f.f.f.f.f.f.f.f.",
"f.f.f.f.f.o o 0.0.0.>.  f.f.f.f.f.f.f.f.f.f.f.f.",
"f.f.:./ Y E o ) 0.0.o =.=.f.f.;.=.;.f.f.=.:.f.f.",
"f.Q ~ Y E E E o o o / / f.f./ / / f.f./ ^ f.f.f.",
"f.U U U U U U U L U L L f.f.L U U f.f.U J f.f.f.",
"f.H H K K K H H H H H H H f.f.H H f.f.f.H H f.f.",
"f.f.f.f.f.f.f.f.f.f.f.f.f.f.f.f.f.f.f.f.f.f.f.f."
};
