/* XPM */
static char *killall_highlights[] = {
/* columns rows colors chars-per-pixel */
"24 24 117 2 ",
"   c black",
".  c #6F6F6F",
"X  c gray46",
"o  c #747679",
"O  c #7C7E7E",
"+  c gray50",
"@  c #BE0000",
"#  c #C20000",
"$  c #C60000",
"%  c #C70000",
"&  c #C60200",
"*  c #C60201",
"=  c #CA0200",
"-  c #CC0000",
";  c #CF0300",
":  c #C10909",
">  c #D20000",
",  c #D20300",
"<  c #D70400",
"1  c #D80701",
"2  c #DC0902",
"3  c #DD0D07",
"4  c #C41111",
"5  c #C41717",
"6  c #C51919",
"7  c #C61818",
"8  c #E2140D",
"9  c #E21812",
"0  c #EA1B15",
"q  c #C72020",
"w  c #C72121",
"e  c #C82828",
"r  c #C92828",
"t  c #C92A2A",
"y  c #CA2F2F",
"u  c #CB2F2F",
"i  c #CF312F",
"p  c #CD3636",
"a  c #D23938",
"s  c #D53938",
"d  c #D73F3A",
"f  c #D23F3E",
"g  c #D7403E",
"h  c #DA413F",
"j  c #DC4643",
"k  c #D84746",
"l  c #DF4A47",
"z  c #DD504E",
"x  c #CD5757",
"c  c #CD5E5E",
"v  c #E04E4B",
"b  c #E4524E",
"n  c #E95450",
"m  c #E25855",
"M  c #E6615C",
"N  c #D16161",
"B  c #D56463",
"V  c #D96563",
"C  c #DD6E6C",
"Z  c #ED6762",
"A  c #E17470",
"S  c #E67D7A",
"D  c #EF7C78",
"F  c #FFB107",
"G  c #FFB207",
"H  c #FFBA00",
"J  c #FFC800",
"K  c #FFCA00",
"L  c #FFDF36",
"P  c #FFE63A",
"I  c #BCAA46",
"U  c #7E8181",
"Y  c #818686",
"T  c gray75",
"R  c #DC8380",
"E  c #D18C8C",
"W  c #D49494",
"Q  c #DF9F9E",
"!  c #EA8380",
"~  c #D8A4A4",
"^  c #DCA8A8",
"/  c #DFA8A8",
"(  c #D0B3B3",
")  c #D2B5B5",
"_  c #DFB3B3",
"`  c #D9BCBD",
"'  c #D8BEBE",
"]  c #DEBDBC",
"[  c #E2A5A5",
"{  c #FFF68C",
"}  c #FFFA95",
"|  c #CFCECE",
" . c #D9C0C0",
".. c #DBC3C3",
"X. c #D2D4D4",
"o. c #D7D7D7",
"O. c #DCD0D0",
"+. c #DFDADA",
"@. c #DFDCDC",
"#. c #EEC4C3",
"$. c #DBE3E3",
"%. c #E2E2E2",
"&. c #E5E4E4",
"*. c gray90",
"=. c #E2E9E9",
"-. c #E1EAEB",
";. c #E7EAEA",
":. c #E8E9E9",
">. c #E9E9E9",
",. c gray92",
"<. c #ECECEC",
"1. c #ECEEEE",
"2. c #F2FBFB",
"3. c #F6FAFA",
"4. c #F8F8F8",
"5. c white",
"6. c None",
/* pixels */
"6.6.6.6.6.6.6.6.6.6.6.6.6.6.6.6.6.6.6.6.6.6.6.6.",
"6.6.6.6.6.6.6.6.6.6.6.6.6.6.6.6.6.6.6.6.6.6.6.6.",
"6.6.6.6.6.6.6.6.6.6.6.6.6.6.6.6.6.o o 6.6.6.6.6.",
"6.6.6.6.6.6.6.6.6.6.6.6.6.6.6.6.    6.o 6.6.6.6.",
"6.6.6.6.6.6.6.6.6.6.6.6.6.6.6.  Z R   O o 6.6.6.",
"6.6.6.6.6.6.6.6.6.6.6.6.6.6.  M b n `   U o 6.6.",
"6.6.6.6.6.6.6.6.6.6.6.6.6.  m l z #.5.@.  Y o 6.",
"6.6.6.6.6.6.6.6.6.6.6.6.  z h j Q 5.3.D d   o 6.",
"6.6.6.6.6.6.6.6.6.6.6.  j a d [ 5.` ! 8 0   6.6.",
"6.6.6.6.6.6.6.6.6.6.  f p a / 5...S 3 9   6.6.6.",
"6.6.6.6.6.6.6.6.6.  p e y / 5.` A 1 3   6.6.6.6.",
"6.6.6.6.6.6.6.6.  y q y _ 5. .C , ,   6.6.6.6.6.",
"6.6.6.6.6.6.6.  y 5 q W 5.O.V - ,   6.6.6.6.6.6.",
"6.6.6.6.6.6.  5 4 5 E 5.) B % -   6.6.6.6.6.6.6.",
"6.6.6.6.6.o T   : ~ 5.) N % -   6.6.6.6.6.6.6.6.",
"6.6.6.6.o o.3.+.  =.$.c @ %   6.6.6.6.6.6.6.6.6.",
"6.6.6.o X 4.,.,.$.  x @ %   6.6.6.6.6.6.6.6.6.6.",
"6.6.6.6.X O ,.,.*.o.  %   6.6.6.6.6.6.6.6.6.6.6.",
"6.6.6.6.6.o X *.*.=.|   6.6.6.6.6.6.6.6.6.6.6.6.",
"6.6.6.6.6.6.o I *.*.o 6.{ { { 6.6.{ { 6.6.} 6.6.",
"6.6.6.6.6.6.6.o o o 6.P P P 6.6.P P 6.6.P 6.6.6.",
"6.6.6.6.6.6.6.6.6.6.J J J 6.6.J J J 6.J H 6.6.6.",
"6.6.6.6.6.6.6.6.G G G G 6.6.G G G 6.6.G G G H 6.",
"6.6.6.6.6.6.6.6.6.6.6.6.6.6.6.6.6.6.6.6.6.6.6.6."
};
