/* XPM */
static char *off[] = {
/* columns rows colors chars-per-pixel */
"24 24 124 2 ",
"   c #686A6D",
".  c #6A6D6D",
"X  c #6E7174",
"o  c #717373",
"O  c #787A7C",
"+  c #878988",
"@  c #8D8F8F",
"#  c #8F9291",
"$  c #939797",
"%  c #969799",
"&  c #979B9B",
"*  c #989B9A",
"=  c #989B9D",
"-  c #9C9E9E",
";  c #9D9EA0",
":  c #9FA2A4",
">  c #A1A1A2",
",  c #A0A1A3",
"<  c #A1A2A2",
"1  c #A0A2A3",
"2  c #A1A2A4",
"3  c #A1A3A6",
"4  c #A2A4A5",
"5  c #A4A7A7",
"6  c #A5A7A8",
"7  c #A5A7A9",
"8  c #A6A7A8",
"9  c #A6A8A9",
"0  c #A7A8A9",
"q  c #A7A9A9",
"w  c #A7A9AA",
"e  c #A8A9A9",
"r  c #A8A9AA",
"t  c #A8A9AB",
"y  c #A8AAAA",
"u  c #A9AAAA",
"i  c #AAABAB",
"p  c #AAABAC",
"a  c #ACADAE",
"s  c #ADADAE",
"d  c #ADAEAF",
"f  c #AEAFAF",
"g  c #ADAFB0",
"h  c #AFB1B1",
"j  c #AEB1B2",
"k  c #AFB1B2",
"l  c #B1B1B3",
"z  c #B3B5B5",
"x  c #B4B5B6",
"c  c #B6B7B8",
"v  c #B7B8B9",
"b  c #B8B9BA",
"n  c #BABCBD",
"m  c #BBBCBD",
"M  c #C3C4C5",
"N  c #C4C6C6",
"B  c #C4C6C7",
"V  c #C5C7C7",
"C  c #C6C8C9",
"Z  c #C7C8C9",
"A  c #C9CBCB",
"S  c #CBCBCB",
"D  c #CBCBCC",
"F  c #CBCCCC",
"G  c #CBCDCD",
"H  c gray80",
"J  c #CCCDCD",
"K  c #CDCDCD",
"L  c #CCCECE",
"P  c #CECECE",
"I  c gray81",
"U  c #CECFD0",
"Y  c #CFD0D0",
"T  c #D0D1D1",
"R  c #D0D2D2",
"E  c #D1D2D2",
"W  c #D0D3D3",
"Q  c #D1D3D3",
"!  c #D2D3D3",
"~  c #D3D3D4",
"^  c #D5D5D5",
"/  c gray84",
"(  c #D6D7D7",
")  c #D7D8D8",
"_  c #D8D8D8",
"`  c #D8D9D9",
"'  c gray85",
"]  c #D8D9DA",
"[  c #D9DADA",
"{  c #DADBDB",
"}  c #DADBDC",
"|  c #DBDBDC",
" . c #DBDCDC",
".. c gainsboro",
"X. c #DCDDDD",
"o. c #DDDDDD",
"O. c #DDDDDE",
"+. c gray87",
"@. c #DFDFDF",
"#. c #DFE0E0",
"$. c gray88",
"%. c #E0E0E1",
"&. c #E0E1E1",
"*. c #E0E2E2",
"=. c #E1E2E2",
"-. c #E2E3E3",
";. c #E2E3E4",
":. c #E3E3E4",
">. c #E4E4E4",
",. c #E4E5E5",
"<. c gray90",
"1. c #E5E6E6",
"2. c #E6E6E6",
"3. c #E6E7E7",
"4. c #E7E7E8",
"5. c #E8E9E9",
"6. c #E9EAEA",
"7. c #EAEBEB",
"8. c #ECECEC",
"9. c #ECEDED",
"0. c gray93",
"q. c #EEEEEE",
"w. c #F1F1F1",
"e. c None",
/* pixels */
"e.e.e.e.e.e.e.e.e.o 8 e e 8 , . e.e.e.e.e.e.e.e.",
"e.e.e.e.e.e.e.e.$ , Z G G G G e % e.e.e.e.e.e.e.",
"e.e.e.e.e.e.e.- , R R R R R I G e - e.e.e.e.e.e.",
"e.e.e.e.e.e., , V R / ' ' ' / / G x @ e.e.e.e.e.",
"e.e.e.e.e.e.0 G ( ] ' ' @.' ' ' ' G , e.e.e.e.e.",
"e.e.e.e.e.e.0 Y ( ' <.<.4.<.<.@.' R x e.e.e.e.e.",
"e.e.e.e.e.e.0 R ' O.<.4.4.q.<.' ' R x e.e.e.e.e.",
"e.e.e.e.e.e.e G ' #.<.q.q.q.4.<.O.U e e.e.e.e.e.",
"e.e.e.e.e.e.e v ' #.<.w.q.q.4.#.' G ; e.e.e.e.e.",
"e.e.e.e.e.e.e.j j <.<.q.q.7.7.<.( x O e.e.e.e.e.",
"e.e.e.e.e.e.e.' g ' <.4.4.7.<.#.n # e.e.e.e.e.e.",
"e.e.e.e.e.e.e.e.g G O.#.#.<.4.Y 3 e.e.e.e.e.e.e.",
"e.e.e.e.e.e.e.e.e.z ' O.' #.#.0 e.e.e.e.e.e.e.e.",
"e.e.e.e.e.e.e.e.e.e j Y ] ] C : e.e.e.e.e.e.e.e.",
"e.e.e.e.e.e.e.e.e.e.v B Y Y j e.e.e.e.e.e.e.e.e.",
"e.e.e.e.e.e.e.e.e.e.0 n G V 0 e.e.e.e.e.e.e.e.e.",
"e.e.e.e.e.e.e.e.e.e.: e n n % e.e.e.e.e.e.e.e.e.",
"e.e.e.e.e.e.e.e.e.e..   . X . e.e.e.e.e.e.e.e.e.",
"e.e.e.e.e.e.e.e.e.e.X + # + X e.e.e.e.e.e.e.e.e.",
"e.e.e.e.e.e.e.e.e.e.X + % # X e.e.e.e.e.e.e.e.e.",
"e.e.e.e.e.e.e.e.e.e.. . - X X e.e.e.e.e.e.e.e.e.",
"e.e.e.e.e.e.e.e.e.e.e.X X X e.e.e.e.e.e.e.e.e.e.",
"e.e.e.e.e.e.e.e.e.e.e.e.e.e.e.e.e.e.e.e.e.e.e.e.",
"e.e.e.e.e.e.e.e.e.e.e.e.e.e.e.e.e.e.e.e.e.e.e.e."
};
