/* XPM */
static char *on[] = {
/* columns rows colors chars-per-pixel */
"24 24 61 1 ",
"  c #FF7B00",
". c #FFB107",
"X c #FFB207",
"o c #FFB208",
"O c #FFCA03",
"+ c #FFDA00",
"@ c #FFE431",
"# c #FFE63A",
"$ c #FFE63D",
"% c #C7BD73",
"& c #C7BC74",
"* c #FDDB53",
"= c #FFDD52",
"- c #FFDD53",
"; c #FCDA54",
": c #FCDA55",
"> c #FDDB55",
", c #FCDA56",
"< c #FFDC54",
"1 c #FFDD54",
"2 c #FFDD55",
"3 c #FFDD56",
"4 c #FFDE57",
"5 c #FCDB58",
"6 c #FCDB59",
"7 c #FFDE59",
"8 c #FFDE5C",
"9 c #FFDF5C",
"0 c #FCDC5F",
"q c #FFEA4C",
"w c #FFE058",
"e c #D5C764",
"r c #E4CD6E",
"t c #FCDC60",
"y c #FCDD60",
"u c #FFDF63",
"i c #FFE061",
"p c #FFE062",
"a c #FFE063",
"s c #FFE066",
"d c #FFE566",
"f c #FFE068",
"g c #FFE16A",
"h c #FFE16B",
"j c #FFE16C",
"k c #FFE16D",
"l c #FFE16E",
"z c #FFE26E",
"x c #FFE376",
"c c #848588",
"v c #828A8F",
"b c #A2A5A4",
"n c #A6A6A7",
"m c #FFE684",
"M c #FFE685",
"N c #FFE789",
"B c #FFE996",
"V c #FFEA97",
"C c #FCEFA7",
"Z c #FFFFDA",
"A c None",
/* pixels */
"AAAAAAAAAmyulllmAAAAAAAA",
"A  AAAAAmxZ6yyllNAAAA  A",
"AA  AAAmxZ444:4ylmA  AAA",
"AAAAAAmmZZ44##:4ulNAAAAA",
"AAAAAAmZZ44####44uVAAAAA",
"A AAAAVZZ:*##e##4ZVAAAA ",
"AA   AVZZ;###e#44ZVA   A",
"AAAAAANZZ;###%##6ZVAAAAA",
"AAAAAAmlZ;##&&#:CZVAAAAA",
"AAAA AAuZ;4#&##,ZmAAAAAA",
"AA   AANy66#&#:6lmAA  AA",
"A  AAAAAmy4#&,6umAAAA  A",
"AAAAAAAAAu4#&:6NAAAAAAA ",
"AAAA  AAAm44&,ymAA  AAAA",
"AAA  AAAAA64&4NAAAA  AAA",
"AAAAAAAAAAd4&wmAAAAAAAAA",
"AAAAAAAAAArrrrrAAAAAAAAA",
"AAAAAAAAAAcccccAAAAAAAAA",
"AAAAAAAAAAcnnncAAAAAAAAA",
"AAAAAAAAAAcnnncAAAAAAAAA",
"AAAAO++#q#cvnvcq##+OOAAA",
"AXXOOOO++q#ccc##++OOOXXA",
"AXXoXOOO++#####++OOXXXXA",
"AAAAAAAAAAAAAAAAAAAAAAAA"
};
