/* XPM */
static char *toggle_global_highlight[] = {
/* columns rows colors chars-per-pixel */
"24 24 188 2 ",
"   c #0E111E",
".  c #101317",
"X  c #151515",
"o  c #161616",
"O  c #151719",
"+  c #11141F",
"@  c #171818",
"#  c #18191A",
"$  c #18191C",
"%  c #1F1E1E",
"&  c #161D29",
"*  c #202021",
"=  c #2B2520",
"-  c #282A2B",
";  c #2F2F2E",
":  c #272C30",
">  c #2F3037",
",  c #3C3E3F",
"<  c #60480F",
"1  c #69421D",
"2  c #604D1F",
"3  c #3E4349",
"4  c #414447",
"5  c #4A4A4B",
"6  c #4B4B4C",
"7  c #505256",
"8  c #6E6F72",
"9  c #945E24",
"0  c #D57113",
"q  c #D27117",
"w  c #D47115",
"e  c #D77314",
"r  c #D87416",
"t  c #D97517",
"y  c #D77A1F",
"u  c #DB7819",
"i  c #D47822",
"p  c #ED8205",
"a  c #E9810C",
"s  c #F28000",
"d  c #F58100",
"f  c #F68100",
"g  c #F88100",
"h  c #FB8400",
"j  c #FD8600",
"k  c #FF8600",
"l  c #FF8900",
"z  c #FD8802",
"x  c #FE8E01",
"c  c #FF8F02",
"v  c #FA8609",
"b  c #E5891E",
"n  c #EAA50A",
"m  c #FCAD05",
"M  c #FDB106",
"N  c #FCB107",
"B  c #FFB007",
"V  c #FFB107",
"C  c #FFB206",
"Z  c #FFB207",
"A  c #FFB307",
"S  c #FFB406",
"D  c #FFBA00",
"F  c #FFB208",
"G  c #FFB408",
"H  c #FFB509",
"J  c #FFA717",
"K  c #D7812E",
"L  c #DB822D",
"P  c #C1843D",
"I  c #DF8B39",
"U  c #EA8C25",
"Y  c #FCC500",
"T  c #FFC800",
"R  c #FFC900",
"E  c #FFCA00",
"W  c #FFCA03",
"Q  c #F0C80D",
"!  c #FFD705",
"~  c #FFD706",
"^  c #FFD707",
"/  c #FFDA02",
"(  c #FFD709",
")  c #FFD70B",
"_  c #FFD50D",
"`  c #FFD60C",
"'  c #FFD70C",
"]  c #FFD50E",
"[  c #FFD50F",
"{  c #FFD60F",
"}  c #FFD80B",
"|  c #FFDC0C",
" . c #FFDD0E",
".. c #FFDC0F",
"X. c #FFD510",
"o. c #FFD610",
"O. c #FFD611",
"+. c #FFD711",
"@. c #FFD612",
"#. c #FCD614",
"$. c #FED715",
"%. c #FED717",
"&. c #FFDF36",
"*. c #FFE126",
"=. c #FFE639",
"-. c #FFE63A",
";. c #FFE73A",
":. c #FFE63D",
">. c #8D8266",
",. c #9B8062",
"<. c #9F8C63",
"1. c #99956D",
"2. c #9F9472",
"3. c #B88C64",
"4. c #D7944F",
"5. c #CE915B",
"6. c #CFBE48",
"7. c #E8B656",
"8. c #C59C78",
"9. c #EBC648",
"0. c #F7DC49",
"q. c #FFE34F",
"w. c #FAE64E",
"e. c #FFE555",
"r. c #FFE759",
"t. c #FFE75D",
"y. c #ECDE6E",
"u. c #FEE861",
"i. c #FFE965",
"p. c #FEEA69",
"a. c #FEEB6C",
"s. c #FEEB70",
"d. c #FFEF73",
"f. c #CFA882",
"g. c #CFA883",
"h. c #CFA884",
"j. c #D0A782",
"k. c #D0A885",
"l. c #D1A985",
"z. c #D2AA86",
"x. c #D4AB84",
"c. c #D5AE8A",
"v. c #E9D388",
"b. c #EFDA8D",
"n. c #E9D791",
"m. c #EDD590",
"M. c #F2DF9F",
"N. c #FFF68A",
"B. c #FFF68C",
"V. c #FFF78F",
"C. c #F4E49D",
"Z. c #F6E99B",
"A. c #FFF790",
"S. c #FFFA95",
"D. c #FCF79D",
"F. c #F3E1A2",
"G. c #F7E5A2",
"H. c #F3E3AB",
"J. c #FAF2AA",
"K. c #FAF3AA",
"L. c #FCF5A8",
"P. c #F9F3AC",
"I. c #FBF7AF",
"U. c #FEF8A8",
"Y. c #FEF9A8",
"T. c #FFF9A8",
"R. c #FEF9A9",
"E. c #FEF9AA",
"W. c #FFFFAB",
"Q. c #F4E4B4",
"!. c #FBF7B1",
"~. c #FDF9B3",
"^. c #FFFFB4",
"/. c #FFFEB5",
"(. c #FEFDB6",
"). c #FFFDB6",
"_. c #FFFFB6",
"`. c #FFFFB7",
"'. c #FDFCB8",
"]. c #FFFFB8",
"[. c #FFFFB9",
"{. c #FFFFBB",
"}. c #FEFEBD",
"|. c #EBF0F3",
" X c #EBF1F4",
".X c #EFF3F5",
"XX c #F6F5F1",
"oX c None",
/* pixels */
"oXoXoXoXoXoXoXoXoXoXoXoXoXoXoXoXoXoXoXoXoXoXoXoX",
"oXoXoXoXoXoXoXoXoXoXoXoXoXoXoXoXoXoXC.b.oXoXoXoX",
"oXoXoXoXoXoXoXoXoXoXoXoXoXoXoXoXoXZ.].U.b.oXoXoX",
"oXoXoXoXoXoXoXoXoXoXoXoXoXoXoXoXJ.`.U.s.O.9.oXoX",
"oXoXoXoXoXoXoXoXoXoXoXoXoXoXoXJ.`.U.s.%./ Y 7.oX",
"oXoXoXoXoXoXoXoXoXoXoXoXoXQ.J.].J.p.$./ ] S U oX",
"oXoXoXoXoXoXoXoXoXoXoXoXm.!.].U.p.O.! O.S a y oX",
"oXoXoXoXoXoXoXoXoXoXoXH.J.`.U.i.O.! O.S p w c.oX",
"oXoXoXoXoXoXoXoXoXoXM.`.`.U.u.] ] } S u e 8.oXoX",
"oXoXoXoXoXoXoXoXoXF.`.].J.t.] ] O.S d w c.oXoXoX",
"oXoXoXoXoXoXoXoXG.].].U.r.] } } H d t j.oXoXoXoX",
"oXoXoXoXoXoXoXb.].].U.e.] ] O.H h t j.oXoXoXoXoX",
"oXoXoXoXoXoX8 1.L.U.e.] } O.S h t j.oXoXoXoXoXoX",
"oXoXoXoXoXoX3 > >.w.} } ] H h u h.oXoXoXoXoXoXoX",
"oXoXoXoXoXoX6 @ + < Q  .H z K j.oXoXoXoXoXoXoXoX",
"oXoXoXoXoXoX6 @ *   2 n z L h..XoXoXoXoXoXoXoXoX",
"oXoXoXoXoXoX4 X % - & 1 i j..XoXoXoXoXoXoXoXoXoX",
"oXoXoXoXoXP 4 + X X = 7 8..XoXoXoXoXoXoXoXoXoXoX",
"oXoXoXoXz c 9 - - X 3.XXoXoXoXoXoXoXoXoXoXoXoXoX",
"oXoXV.J v I 5.<.1.y.V.V.B.B.B.B.V.V.V.V.V.S.oXoX",
"oX} *.z U 4.,.6.w.-.-.-.-.-.-.-.-.-.-.-.&.oXoXoX",
"oXW W Y W W W W Y Y W W Y W Y Y W Y W Y D oXoXoX",
"oXS S H S H S S S S H S S S S H S S H S B S oXoX",
"oXoXoXoXoXoXoXoXoXoXoXoXoXoXoXoXoXoXoXoXoXoXoXoX"
};
