/* XPM */
static char *toggle_global_highlight[] = {
/* columns rows colors chars-per-pixel */
"24 24 173 2 ",
"   c #0E111E",
".  c #101317",
"X  c #151515",
"o  c #161616",
"O  c #151719",
"+  c #11141F",
"@  c #171818",
"#  c #18191A",
"$  c #18191C",
"%  c #1F1E1E",
"&  c #161D29",
"*  c #202021",
"=  c #2B2520",
"-  c #282A2B",
";  c #2F2F2E",
":  c #272C30",
">  c #2F3037",
",  c #3C3E3F",
"<  c #60480F",
"1  c #69421D",
"2  c #604D1F",
"3  c #3E4349",
"4  c #414447",
"5  c #4A4A4B",
"6  c #4B4B4C",
"7  c #505256",
"8  c #6E6F72",
"9  c #D57113",
"0  c #D27117",
"q  c #D47115",
"w  c #D77314",
"e  c #D87416",
"r  c #D97517",
"t  c #D77A1F",
"y  c #DB7819",
"u  c #D47822",
"i  c #ED8205",
"p  c #E9810C",
"a  c #F28000",
"s  c #F58100",
"d  c #F68100",
"f  c #F88100",
"g  c #FB8400",
"h  c #FD8600",
"j  c #FD8802",
"k  c #FE8E01",
"l  c #E5891E",
"z  c #EAA50A",
"x  c #FCAD05",
"c  c #FDB106",
"v  c #FCB107",
"b  c #FFB107",
"n  c #FFB206",
"m  c #FFB207",
"M  c #FFB307",
"N  c #FFB406",
"B  c #FFBA00",
"V  c #FFB208",
"C  c #FFB408",
"Z  c #FFB509",
"A  c #D7812E",
"S  c #DB822D",
"D  c #FCC500",
"F  c #FFC800",
"G  c #FFC900",
"H  c #FFCA00",
"J  c #FFCA03",
"K  c #F0C80D",
"L  c #FFD705",
"P  c #FFD706",
"I  c #FFD707",
"U  c #FFDA02",
"Y  c #FFD709",
"T  c #FFD70B",
"R  c #FFD50D",
"E  c #FFD60C",
"W  c #FFD70C",
"Q  c #FFD50E",
"!  c #FFD50F",
"~  c #FFD60F",
"^  c #FFD80B",
"/  c #FFDC0C",
"(  c #FFDD0E",
")  c #FFDC0F",
"_  c #FFD510",
"`  c #FFD610",
"'  c #FFD611",
"]  c #FFD711",
"[  c #FFD612",
"{  c #FCD614",
"}  c #FED715",
"|  c #FED717",
" . c #FFDF36",
".. c #FFE126",
"X. c #FFE639",
"o. c #FFE63A",
"O. c #FFE73A",
"+. c #FFE63D",
"@. c #8D8266",
"#. c #9F9472",
"$. c #B88C64",
"%. c #CFBE48",
"&. c #E8B656",
"*. c #C59C78",
"=. c #EBC648",
"-. c #F7DC49",
";. c #FFE34F",
":. c #FAE64E",
">. c #FFE555",
",. c #FFE759",
"<. c #FFE75D",
"1. c #ECDE6E",
"2. c #FEE861",
"3. c #FFE965",
"4. c #FEEA69",
"5. c #FEEB6C",
"6. c #FEEB70",
"7. c #FFEF73",
"8. c #CFA882",
"9. c #CFA883",
"0. c #CFA884",
"q. c #D0A782",
"w. c #D0A885",
"e. c #D1A985",
"r. c #D2AA86",
"t. c #D4AB84",
"y. c #D5AE8A",
"u. c #E9D388",
"i. c #EFDA8D",
"p. c #E9D791",
"a. c #EDD590",
"s. c #F2DF9F",
"d. c #FFF68A",
"f. c #FFF68C",
"g. c #FFF78F",
"h. c #F4E49D",
"j. c #F6E99B",
"k. c #FFF790",
"l. c #FFFA95",
"z. c #FCF79D",
"x. c #F3E1A2",
"c. c #F7E5A2",
"v. c #F3E3AB",
"b. c #FAF2AA",
"n. c #FAF3AA",
"m. c #FCF5A8",
"M. c #F9F3AC",
"N. c #FBF7AF",
"B. c #FEF8A8",
"V. c #FEF9A8",
"C. c #FFF9A8",
"Z. c #FEF9A9",
"A. c #FEF9AA",
"S. c #FFFFAB",
"D. c #F4E4B4",
"F. c #FBF7B1",
"G. c #FDF9B3",
"H. c #FFFFB4",
"J. c #FFFEB5",
"K. c #FEFDB6",
"L. c #FFFDB6",
"P. c #FFFFB6",
"I. c #FFFFB7",
"U. c #FDFCB8",
"Y. c #FFFFB8",
"T. c #FFFFB9",
"R. c #FFFFBB",
"E. c #FEFEBD",
"W. c #EBF0F3",
"Q. c #EBF1F4",
"!. c #EFF3F5",
"~. c #F6F5F1",
"^. c None",
/* pixels */
"^.^.^.^.^.^.^.^.^.^.^.^.^.^.^.^.^.^.^.^.^.^.^.^.",
"^.^.^.^.^.^.^.^.^.^.^.^.^.^.^.^.^.^.h.u.^.^.^.^.",
"^.^.^.^.^.^.^.^.^.^.^.^.^.^.^.^.^.j.Y.B.i.^.^.^.",
"^.^.^.^.^.^.^.^.^.^.^.^.^.^.^.^.M.I.B.6.' =.^.^.",
"^.^.^.^.^.^.^.^.^.^.^.^.^.^.^.b.I.B.6.| U J &.^.",
"^.^.^.^.^.^.^.^.^.^.^.^.^.D.b.Y.B.4.{ U Q N l ^.",
"^.^.^.^.^.^.^.^.^.^.^.^.a.F.Y.B.4.' U Q N y t ^.",
"^.^.^.^.^.^.^.^.^.^.^.v.b.I.B.3.' I Q N d r y.^.",
"^.^.^.^.^.^.^.^.^.^.s.I.I.B.2.Q I ' N y w *.^.^.",
"^.^.^.^.^.^.^.^.^.x.I.Y.b.<.Q Q ' N d r t.^.^.^.",
"^.^.^.^.^.^.^.^.c.Y.Y.B.,.Q ^ ^ Z d r r.^.^.^.^.",
"^.^.^.^.^.^.^.u.Y.Y.B.>.Q Q ' Z d r q.^.^.^.^.^.",
"^.^.^.^.^.^.8 #.m.B.>.Q ^ ' N g r q.^.^.^.^.^.^.",
"^.^.^.^.^.^.3 > @.:.^ ^ Q Z g y q.^.^.^.^.^.^.^.",
"^.^.^.^.^.^.6 @ + < K ( Z j A q.^.^.^.^.^.^.^.^.",
"^.^.^.^.^.^.6 @ *   2 z j S 0.!.^.^.^.^.^.^.^.^.",
"^.^.^.^.^.^.4 o % ; & 1 t q.!.^.^.^.^.^.^.^.^.^.",
"^.^.^.^.^.r 3 @ o + = 7 *.W.^.^.^.^.^.^.^.^.^.^.",
"^.^.^.^.r j Z : - o $.~.^.^.^.^.^.^.^.^.^.^.^.^.",
"^.^.g.r j N j j r 1.k.f.f.f.f.f.f.f.f.f.f.l.^.^.",
"^.^ ..g Z j r %.:.X.X. .X.X.X.X.X.X.X.X. .^.^.^.",
"^.J J J J J J J J J J J J J J J J J J J B ^.^.^.",
"^.N Z N N Z N N N N Z N x x N Z x N Z N x Z N ^.",
"^.^.^.^.^.^.^.^.^.^.^.^.^.^.^.^.^.^.^.^.^.^.^.^."
};
